<svg width="386" height="296" viewBox="0 0 386 296" fill="none" xmlns="http://www.w3.org/2000/svg">
<path d="M200.415 196.779L132.05 191.084L132.62 184.244C133.59 172.604 135.694 163.294 138.932 156.314C142.18 149.214 146.633 142.879 152.29 137.309C158.067 131.749 170.701 122.168 190.191 108.567C200.565 101.456 206.027 94.6008 206.577 88.0009C207.127 81.4011 205.573 76.1363 201.915 72.2067C198.387 68.1671 192.665 65.8176 184.749 65.1582C176.233 64.4488 168.922 66.6793 162.815 71.8497C156.828 77.03 152.47 86.5751 149.742 100.485L80.6579 86.0306C85.1957 60.5509 96.2101 40.6856 113.701 26.4346C131.322 12.0736 156.924 6.2918 190.506 9.08916C216.653 11.2671 237.307 18.4853 252.469 30.7439C273.068 47.3219 282.343 67.9106 280.294 92.5102C279.444 102.71 275.806 112.315 269.379 121.325C262.953 130.336 250.474 140.956 231.944 153.187C219.03 161.778 210.71 168.879 206.981 174.489C203.383 179.989 201.194 187.419 200.415 196.779ZM128.197 209.069L201.419 215.168L196.036 279.787L122.815 273.688L128.197 209.069Z" fill="url(#paint0_linear_784_365)"/>
<path d="M333.861 228.96L299.606 242.472L298.254 239.044C295.953 233.212 294.753 228.231 294.652 224.102C294.527 219.913 295.164 215.806 296.562 211.78C298.021 207.731 301.823 200.116 307.97 188.937C311.272 183.049 312.271 178.451 310.967 175.144C309.662 171.837 307.663 169.673 304.968 168.651C302.31 167.546 298.998 167.776 295.031 169.34C290.764 171.023 287.776 173.835 286.066 177.775C284.416 181.691 284.588 187.321 286.582 194.664L249.898 204.131C246.025 190.79 246.603 178.611 251.633 167.594C256.699 156.494 267.646 147.625 284.473 140.987C297.574 135.82 309.23 134.384 319.441 136.679C333.296 139.76 342.654 147.464 347.516 159.79C349.532 164.9 350.064 170.388 349.113 176.252C348.162 182.116 344.682 190.194 338.671 200.486C334.499 207.69 332.183 213.085 331.722 216.671C331.298 220.174 332.011 224.27 333.861 228.96ZM302.027 252.043L338.716 237.571L351.487 269.949L314.798 284.421L302.027 252.043Z" fill="url(#paint1_linear_784_365)"/>
<path d="M79.8963 202.208L45.1663 189.969L46.3908 186.494C48.4746 180.581 50.8313 176.031 53.4607 172.846C56.1116 169.6 59.2841 166.914 62.9782 164.79C66.7333 162.687 74.5949 159.426 86.5631 155.009C92.9163 152.725 96.6837 149.906 97.8652 146.553C99.0468 143.201 98.9545 140.256 97.5882 137.718C96.3045 135.141 93.6519 133.144 89.6305 131.727C85.3045 130.203 81.2048 130.368 77.3314 132.224C73.5189 134.102 69.9599 138.467 66.6543 145.32L32.7399 128.434C38.5558 115.818 46.9729 106.997 57.9912 101.971C69.0919 96.9054 83.1725 97.3786 100.233 103.391C113.516 108.072 123.262 114.624 129.471 123.049C137.918 134.455 139.94 146.407 135.536 158.904C133.71 164.085 130.516 168.579 125.955 172.386C121.395 176.193 113.472 180.014 102.188 183.85C94.3157 186.558 89.0306 189.116 86.3328 191.523C83.7175 193.891 81.572 197.453 79.8963 202.208ZM40.7235 198.785L77.9212 211.894L66.3527 244.721L29.155 231.613L40.7235 198.785Z" fill="url(#paint2_linear_784_365)"/>
<defs>
<linearGradient id="paint0_linear_784_365" x1="187.178" y1="8.81192" x2="164.823" y2="277.187" gradientUnits="userSpaceOnUse">
<stop stop-color="#7094F1" stop-opacity="0.51"/>
<stop offset="1" stop-color="#7094F1" stop-opacity="0"/>
</linearGradient>
<linearGradient id="paint1_linear_784_365" x1="282.805" y1="141.645" x2="335.847" y2="276.119" gradientUnits="userSpaceOnUse">
<stop stop-color="#7094F1" stop-opacity="0.51"/>
<stop offset="1" stop-color="#7094F1" stop-opacity="0"/>
</linearGradient>
<linearGradient id="paint2_linear_784_365" x1="98.542" y1="102.795" x2="50.4957" y2="239.133" gradientUnits="userSpaceOnUse">
<stop stop-color="#7094F1" stop-opacity="0.51"/>
<stop offset="1" stop-color="#7094F1" stop-opacity="0"/>
</linearGradient>
</defs>
</svg>
