<svg width="164" height="63" viewBox="0 0 164 63" fill="none" xmlns="http://www.w3.org/2000/svg">
<path fill-rule="evenodd" clip-rule="evenodd" d="M9.03477 20.8079C17.636 13.0295 29.7204 14.0417 36.0043 19.5446C36.1668 19.6327 37.2412 20.6879 37.1971 20.8198C37.1529 20.9517 37.1087 29.6587 37.1087 29.6587L37.1087 29.6587V39.396C45.1777 40.2894 47.5634 41.8271 47.5712 46.5895V62.0222C41.7509 62.0222 37.0327 57.3039 37.0327 51.4837V39.6089C35.2603 20.6437 13.4977 22.9181 10.6025 36.7071V61.7602C4.7469 61.7602 0 57.0133 0 51.1577V15.323C4.70778 16.3766 7.50601 17.8652 9.03477 20.8079Z" fill="#384BF5"/>
<path fill-rule="evenodd" clip-rule="evenodd" d="M47.5714 16.2381C47.5635 5.83005 45.1629 2.49174 37.0329 0.547852V38.7125C37.0328 38.7443 37.0327 38.7761 37.0327 38.8079C37.0327 38.8397 37.0328 38.8715 37.0329 38.9032V39.3216C37.0329 39.6704 37.0499 40.0153 37.083 40.3554C37.8797 52.5831 48.0501 62.2544 60.4792 62.2544C73.4284 62.2544 83.9257 51.757 83.9257 38.8079C83.9257 25.8587 73.4284 15.3614 60.4792 15.3614C55.7101 15.3614 51.2735 16.7853 47.5714 19.2311V16.2381ZM73.628 38.6298C73.628 45.7749 67.8358 51.5671 60.6907 51.5671C53.5457 51.5671 47.7535 45.7749 47.7535 38.6298C47.7535 31.4848 53.5457 25.6925 60.6907 25.6925C67.8358 25.6925 73.628 31.4848 73.628 38.6298Z" fill="white"/>
<path d="M97.8378 30.2959V22.6746C97.8378 21.6842 97.526 20.8679 96.9023 20.2259C96.2787 19.584 95.4716 19.263 94.4811 19.263C93.8208 19.263 93.2339 19.4097 92.7203 19.7032C92.2067 19.9967 91.8032 20.4002 91.5097 20.9138C91.2162 21.4274 91.0695 22.0143 91.0695 22.6746L90.0515 22.0969C90.0515 21.1064 90.2716 20.2259 90.7118 19.4556C91.152 18.6852 91.7665 18.0799 92.5552 17.6397C93.3439 17.1811 94.2335 16.9518 95.224 16.9518C96.2145 16.9518 97.0858 17.1994 97.8378 17.6947C98.6082 18.1899 99.2135 18.8411 99.6537 19.6482C100.094 20.4369 100.314 21.2806 100.314 22.1794V30.2959H97.8378ZM88.5932 30.2959V17.227H91.0695V30.2959H88.5932ZM109.72 30.571C108.417 30.571 107.243 30.2776 106.198 29.6906C105.152 29.0853 104.327 28.2691 103.722 27.2419C103.116 26.2147 102.814 25.05 102.814 23.7477C102.814 22.4637 103.107 21.3081 103.694 20.281C104.299 19.2538 105.106 18.4467 106.115 17.8598C107.142 17.2545 108.289 16.9518 109.554 16.9518C110.765 16.9518 111.829 17.227 112.746 17.7772C113.682 18.3275 114.406 19.0887 114.92 20.0609C115.452 21.033 115.718 22.1335 115.718 23.3625C115.718 23.5459 115.708 23.7477 115.69 23.9678C115.672 24.1695 115.635 24.408 115.58 24.6831H104.547V22.6196H114.259L113.351 23.4175C113.351 22.5371 113.195 21.7942 112.884 21.1889C112.572 20.5653 112.132 20.0884 111.563 19.7582C110.994 19.4097 110.307 19.2354 109.499 19.2354C108.656 19.2354 107.913 19.4189 107.271 19.7857C106.629 20.1526 106.134 20.6662 105.785 21.3265C105.437 21.9868 105.262 22.7664 105.262 23.6651C105.262 24.5823 105.446 25.3893 105.813 26.0863C106.179 26.765 106.702 27.2969 107.381 27.6821C108.06 28.049 108.839 28.2324 109.72 28.2324C110.453 28.2324 111.123 28.104 111.728 27.8472C112.352 27.5904 112.884 27.2052 113.324 26.6916L114.92 28.3149C114.296 29.0486 113.526 29.6081 112.608 29.9932C111.71 30.3784 110.747 30.571 109.72 30.571ZM126.599 30.2959L122.527 24.5731L122.059 24.1329L116.914 17.227H119.913L123.627 22.317L124.095 22.7022L129.598 30.2959H126.599ZM116.666 30.2959L122.059 23.0323L123.462 24.8482L119.583 30.2959H116.666ZM124.288 24.1053L122.857 22.3445L126.461 17.227H129.35L124.288 24.1053ZM137.134 30.571C136.07 30.571 135.107 30.3326 134.245 29.8557C133.401 29.3604 132.741 28.6818 132.264 27.8197C131.787 26.9576 131.549 25.9579 131.549 24.8207V17.227H134.025V24.7106C134.025 25.426 134.144 26.0496 134.382 26.5816C134.639 27.0952 135.006 27.4895 135.483 27.7647C135.96 28.0398 136.519 28.1774 137.161 28.1774C138.133 28.1774 138.895 27.8747 139.445 27.2694C139.995 26.6458 140.27 25.7928 140.27 24.7106V17.227H142.747V24.8207C142.747 25.9579 142.508 26.9576 142.031 27.8197C141.554 28.6818 140.894 29.3604 140.05 29.8557C139.225 30.3326 138.253 30.571 137.134 30.571ZM150.22 30.571C149.486 30.571 148.789 30.4793 148.129 30.2959C147.487 30.0941 146.891 29.819 146.341 29.4705C145.79 29.1036 145.313 28.6726 144.91 28.1774L146.506 26.5816C146.983 27.1685 147.533 27.6087 148.156 27.9022C148.78 28.1774 149.477 28.3149 150.247 28.3149C151.018 28.3149 151.614 28.1865 152.036 27.9297C152.458 27.6546 152.669 27.2786 152.669 26.8017C152.669 26.3248 152.494 25.9579 152.146 25.7011C151.816 25.426 151.385 25.2059 150.853 25.0408C150.321 24.8574 149.752 24.6831 149.147 24.5181C148.56 24.3346 148.001 24.1053 147.469 23.8302C146.937 23.5551 146.496 23.1791 146.148 22.7022C145.818 22.2253 145.653 21.5924 145.653 20.8037C145.653 20.015 145.845 19.3363 146.23 18.7677C146.616 18.1808 147.148 17.7314 147.826 17.4196C148.523 17.1077 149.358 16.9518 150.33 16.9518C151.357 16.9518 152.265 17.1352 153.054 17.5021C153.861 17.8506 154.521 18.3825 155.035 19.0979L153.439 20.6937C153.072 20.2168 152.614 19.8499 152.063 19.5931C151.531 19.3363 150.926 19.2079 150.247 19.2079C149.532 19.2079 148.982 19.3363 148.597 19.5931C148.23 19.8316 148.046 20.1709 148.046 20.6111C148.046 21.0513 148.211 21.3907 148.542 21.6291C148.872 21.8676 149.303 22.0693 149.835 22.2344C150.385 22.3995 150.954 22.5738 151.541 22.7572C152.128 22.9223 152.687 23.1515 153.219 23.445C153.751 23.7385 154.182 24.1329 154.512 24.6281C154.861 25.1234 155.035 25.7745 155.035 26.5816C155.035 27.8105 154.595 28.7827 153.714 29.498C152.852 30.2134 151.687 30.571 150.22 30.571Z" fill="#384BF5"/>
<path d="M95.4716 54.5456C94.4811 54.5456 93.5824 54.3439 92.7753 53.9403C91.9866 53.5185 91.3538 52.9407 90.8769 52.207C90.4 51.4733 90.134 50.6387 90.079 49.7033V45.7688C90.134 44.815 90.4 43.9804 90.8769 43.2651C91.3721 42.5314 92.0141 41.9628 92.8028 41.5592C93.6099 41.1374 94.4995 40.9264 95.4716 40.9264C96.6639 40.9264 97.7369 41.2291 98.6907 41.8344C99.6629 42.4397 100.424 43.2559 100.974 44.2831C101.525 45.3103 101.8 46.4658 101.8 47.7498C101.8 49.0338 101.525 50.1893 100.974 51.2165C100.424 52.2437 99.6629 53.0599 98.6907 53.6652C97.7369 54.2522 96.6639 54.5456 95.4716 54.5456ZM95.0589 52.207C95.8843 52.207 96.6089 52.0144 97.2325 51.6292C97.8561 51.244 98.3514 50.7213 98.7182 50.0609C99.0851 49.3823 99.2685 48.6027 99.2685 47.7223C99.2685 46.8602 99.0851 46.0898 98.7182 45.4111C98.3514 44.7325 97.8561 44.2097 97.2325 43.8429C96.6089 43.4577 95.8935 43.2651 95.0864 43.2651C94.261 43.2651 93.5365 43.4577 92.9129 43.8429C92.2892 44.2097 91.8032 44.7325 91.4546 45.4111C91.1061 46.0898 90.9319 46.8694 90.9319 47.7498C90.9319 48.6119 91.097 49.3823 91.4271 50.0609C91.7756 50.7213 92.2617 51.244 92.8854 51.6292C93.5273 52.0144 94.2519 52.207 95.0589 52.207ZM88.5932 54.2705V34.6258H91.0695V44.3931L90.6017 47.5572L91.0695 50.7488V54.2705H88.5932ZM104.607 54.2705V41.2016H107.083V54.2705H104.607ZM107.083 46.8143L106.148 46.4016C106.148 44.7325 106.533 43.4027 107.303 42.4122C108.074 41.4217 109.183 40.9264 110.632 40.9264C111.293 40.9264 111.889 41.0457 112.421 41.2841C112.953 41.5042 113.448 41.8802 113.907 42.4122L112.283 44.0905C112.008 43.797 111.705 43.5861 111.375 43.4577C111.045 43.3293 110.66 43.2651 110.22 43.2651C109.303 43.2651 108.551 43.5586 107.964 44.1455C107.377 44.7325 107.083 45.6221 107.083 46.8143ZM120.778 54.5456C119.586 54.5456 118.503 54.2522 117.531 53.6652C116.559 53.0599 115.789 52.2437 115.22 51.2165C114.67 50.1893 114.395 49.0338 114.395 47.7498C114.395 46.4658 114.67 45.3103 115.22 44.2831C115.789 43.2559 116.55 42.4397 117.504 41.8344C118.476 41.2291 119.567 40.9264 120.778 40.9264C121.768 40.9264 122.649 41.1374 123.419 41.5592C124.208 41.9628 124.841 42.5314 125.318 43.2651C125.795 43.9804 126.06 44.815 126.115 45.7688V49.7033C126.06 50.6387 125.795 51.4733 125.318 52.207C124.859 52.9407 124.235 53.5185 123.447 53.9403C122.676 54.3439 121.787 54.5456 120.778 54.5456ZM121.191 52.207C122.42 52.207 123.41 51.7943 124.162 50.9689C124.914 50.1251 125.29 49.0521 125.29 47.7498C125.29 46.851 125.116 46.0715 124.767 45.4111C124.437 44.7325 123.96 44.2097 123.337 43.8429C122.713 43.4577 121.988 43.2651 121.163 43.2651C120.338 43.2651 119.604 43.4577 118.962 43.8429C118.338 44.2281 117.843 44.76 117.476 45.4387C117.128 46.099 116.953 46.8602 116.953 47.7223C116.953 48.6027 117.128 49.3823 117.476 50.0609C117.843 50.7213 118.347 51.244 118.989 51.6292C119.631 52.0144 120.365 52.207 121.191 52.207ZM125.125 54.2705V50.7488L125.593 47.5572L125.125 44.3931V41.2016H127.629V54.2705H125.125ZM140.478 54.2705V46.6493C140.478 45.6588 140.167 44.8425 139.543 44.2005C138.919 43.5586 138.112 43.2376 137.122 43.2376C136.461 43.2376 135.874 43.3843 135.361 43.6778C134.847 43.9713 134.444 44.3748 134.15 44.8884C133.857 45.402 133.71 45.9889 133.71 46.6493L132.692 46.0715C132.692 45.081 132.912 44.2005 133.352 43.4302C133.793 42.6598 134.407 42.0545 135.196 41.6143C135.985 41.1557 136.874 40.9264 137.865 40.9264C138.855 40.9264 139.726 41.1741 140.478 41.6693C141.249 42.1645 141.854 42.8157 142.294 43.6228C142.735 44.4115 142.955 45.2552 142.955 46.154V54.2705H140.478ZM131.234 54.2705V41.2016H133.71V54.2705H131.234ZM151.837 54.5456C150.627 54.5456 149.545 54.2522 148.591 53.6652C147.637 53.0599 146.876 52.2437 146.307 51.2165C145.757 50.1893 145.482 49.0338 145.482 47.7498C145.482 46.4658 145.757 45.3103 146.307 44.2831C146.876 43.2559 147.637 42.4397 148.591 41.8344C149.545 41.2291 150.627 40.9264 151.837 40.9264C152.81 40.9264 153.69 41.1374 154.479 41.5592C155.267 41.9628 155.9 42.5314 156.377 43.2651C156.872 43.9804 157.148 44.815 157.203 45.7688V49.7033C157.148 50.6387 156.882 51.4733 156.405 52.207C155.928 52.9407 155.295 53.5185 154.506 53.9403C153.718 54.3439 152.828 54.5456 151.837 54.5456ZM152.25 52.207C153.076 52.207 153.791 52.0144 154.396 51.6292C155.02 51.244 155.506 50.7213 155.854 50.0609C156.203 49.3823 156.377 48.6119 156.377 47.7498C156.377 46.851 156.194 46.0715 155.827 45.4111C155.478 44.7508 154.992 44.2281 154.369 43.8429C153.763 43.4577 153.048 43.2651 152.223 43.2651C151.397 43.2651 150.673 43.4577 150.049 43.8429C149.425 44.2281 148.93 44.76 148.563 45.4387C148.215 46.099 148.041 46.8602 148.041 47.7223C148.041 48.6027 148.215 49.3823 148.563 50.0609C148.93 50.7213 149.425 51.244 150.049 51.6292C150.691 52.0144 151.425 52.207 152.25 52.207ZM158.716 54.2705H156.212V50.7488L156.68 47.5572L156.212 44.3931V34.6258H158.716V54.2705Z" fill="white"/>
</svg>
