<svg width="46" height="34" viewBox="0 0 46 34" fill="none" xmlns="http://www.w3.org/2000/svg">
<path d="M44.9001 19.1998C44.7425 19.318 44.5632 19.404 44.3723 19.4529C44.1815 19.5018 43.9829 19.5126 43.7879 19.4848C43.5929 19.4569 43.4053 19.3909 43.2358 19.2906C43.0663 19.1902 42.9183 19.0574 42.8001 18.8998C41.896 17.6846 40.7192 16.6986 39.3644 16.0212C38.0096 15.3438 36.5147 14.994 35.0001 14.9998C34.6023 14.9998 34.2207 14.8418 33.9394 14.5605C33.6581 14.2792 33.5001 13.8977 33.5001 13.4998C33.5001 13.102 33.6581 12.7205 33.9394 12.4392C34.2207 12.1579 34.6023 11.9998 35.0001 11.9998C35.8417 11.9998 36.6665 11.7637 37.3806 11.3184C38.0948 10.8731 38.6698 10.2364 39.0403 9.48067C39.4107 8.72496 39.5619 7.8805 39.4765 7.04321C39.3911 6.20592 39.0725 5.40936 38.5571 4.74401C38.0417 4.07867 37.35 3.5712 36.5606 3.27925C35.7713 2.98731 34.9158 2.92259 34.0915 3.09244C33.2672 3.26229 32.507 3.65992 31.8974 4.24014C31.2877 4.82037 30.853 5.55994 30.6426 6.37485C30.5933 6.56567 30.507 6.74493 30.3885 6.90239C30.2699 7.05984 30.1216 7.19241 29.9518 7.29253C29.782 7.39264 29.5942 7.45833 29.3991 7.48586C29.2039 7.51339 29.0053 7.50222 28.8145 7.45297C28.6236 7.40373 28.4444 7.31738 28.2869 7.19885C28.1295 7.08033 27.9969 6.93195 27.8968 6.7622C27.7967 6.59244 27.731 6.40462 27.7034 6.20948C27.6759 6.01433 27.6871 5.81567 27.7363 5.62485C28.0284 4.49481 28.5801 3.44853 29.3477 2.56926C30.1152 1.68998 31.0774 1.00198 32.1577 0.560003C33.2379 0.118024 34.4064 -0.0657374 35.5702 0.0233411C36.7339 0.11242 37.8608 0.471879 38.8612 1.07312C39.8616 1.67436 40.7079 2.50078 41.3327 3.48663C41.9575 4.47248 42.3435 5.59055 42.4602 6.75187C42.5769 7.91318 42.4209 9.0857 42.0046 10.1761C41.5884 11.2665 40.9234 12.2448 40.0626 13.033C42.1022 13.9161 43.8753 15.3175 45.2057 17.098C45.3239 17.256 45.4097 17.4357 45.4584 17.6269C45.507 17.8181 45.5174 18.0171 45.489 18.2123C45.4606 18.4076 45.394 18.5953 45.2929 18.7647C45.1918 18.9342 45.0584 19.0821 44.9001 19.1998ZM34.7976 30.7498C34.9023 30.9206 34.9718 31.1106 35.0019 31.3086C35.032 31.5067 35.0221 31.7087 34.9728 31.9029C34.9236 32.097 34.836 32.2794 34.7151 32.4391C34.5942 32.5988 34.4426 32.7327 34.2692 32.8329C34.0957 32.9331 33.9039 32.9976 33.7052 33.0224C33.5064 33.0473 33.3047 33.0321 33.1119 32.9778C32.9191 32.9234 32.7392 32.831 32.5827 32.706C32.4262 32.581 32.2963 32.4259 32.2007 32.2498C31.2557 30.6503 29.91 29.3247 28.2964 28.4039C26.6828 27.483 24.857 26.9987 22.9991 26.9987C21.1413 26.9987 19.3155 27.483 17.7019 28.4039C16.0883 29.3247 14.7426 30.6503 13.7976 32.2498C13.7038 32.4291 13.5747 32.5875 13.4182 32.7156C13.2616 32.8437 13.0807 32.9388 12.8864 32.9952C12.6921 33.0515 12.4884 33.068 12.2876 33.0436C12.0868 33.0192 11.8929 32.9545 11.7178 32.8532C11.5426 32.752 11.3898 32.6163 11.2684 32.4545C11.147 32.2926 11.0597 32.1079 11.0115 31.9114C10.9634 31.7149 10.9555 31.5107 10.9883 31.3111C11.0212 31.1115 11.094 30.9206 11.2026 30.7498C12.6568 28.2512 14.8742 26.2849 17.5288 25.1398C16.0351 23.9962 14.9373 22.4131 14.3897 20.6133C13.8422 18.8134 13.8724 16.8872 14.4762 15.1054C15.0799 13.3236 16.2269 11.7758 17.7558 10.6796C19.2848 9.58339 21.1188 8.99384 23.0001 8.99384C24.8814 8.99384 26.7154 9.58339 28.2443 10.6796C29.7732 11.7758 30.9202 13.3236 31.524 15.1054C32.1278 16.8872 32.158 18.8134 31.6105 20.6133C31.0629 22.4131 29.9651 23.9962 28.4713 25.1398C31.126 26.2849 33.3433 28.2512 34.7976 30.7498ZM23.0001 23.9998C24.1868 23.9998 25.3468 23.648 26.3335 22.9887C27.3202 22.3294 28.0892 21.3923 28.5434 20.2959C28.9975 19.1996 29.1163 17.9932 28.8848 16.8293C28.6533 15.6654 28.0818 14.5963 27.2427 13.7572C26.4036 12.9181 25.3345 12.3466 24.1706 12.1151C23.0067 11.8836 21.8003 12.0024 20.704 12.4566C19.6076 12.9107 18.6706 13.6797 18.0113 14.6664C17.352 15.6531 17.0001 16.8132 17.0001 17.9998C17.0001 19.5911 17.6322 21.1173 18.7574 22.2425C19.8827 23.3677 21.4088 23.9998 23.0001 23.9998ZM12.5001 13.4998C12.5001 13.102 12.342 12.7205 12.0607 12.4392C11.7794 12.1579 11.3979 11.9998 11.0001 11.9998C10.1584 11.9998 9.3337 11.7637 8.61952 11.3184C7.90534 10.8731 7.33036 10.2364 6.95989 9.48067C6.58942 8.72496 6.4383 7.8805 6.5237 7.04321C6.60911 6.20592 6.92761 5.40936 7.44303 4.74401C7.95845 4.07867 8.65014 3.5712 9.43952 3.27925C10.2289 2.98731 11.0843 2.92259 11.9086 3.09244C12.733 3.26229 13.4931 3.65992 14.1028 4.24014C14.7124 4.82037 15.1472 5.55994 15.3576 6.37485C15.457 6.76024 15.7055 7.09034 16.0484 7.29253C16.3912 7.49471 16.8003 7.55243 17.1857 7.45297C17.5711 7.35351 17.9012 7.10504 18.1034 6.7622C18.3056 6.41936 18.3633 6.01024 18.2638 5.62485C17.9718 4.49481 17.42 3.44853 16.6525 2.56926C15.8849 1.68998 14.9227 1.00198 13.8425 0.560003C12.7622 0.118024 11.5938 -0.0657374 10.43 0.0233411C9.26624 0.11242 8.13933 0.471879 7.13894 1.07312C6.13855 1.67436 5.29229 2.50078 4.66749 3.48663C4.0427 4.47248 3.65661 5.59055 3.53996 6.75187C3.42331 7.91318 3.5793 9.0857 3.99554 10.1761C4.41177 11.2665 5.07676 12.2448 5.93758 13.033C3.89999 13.9169 2.12892 15.3183 0.800081 17.098C0.561137 17.4162 0.458408 17.8164 0.514493 18.2104C0.570578 18.6044 0.780883 18.96 1.09914 19.1989C1.4174 19.4379 1.81755 19.5406 2.21155 19.4845C2.60555 19.4284 2.96114 19.2181 3.20008 18.8998C4.10418 17.6846 5.28098 16.6986 6.63575 16.0212C7.99052 15.3438 9.48541 14.994 11.0001 14.9998C11.3979 14.9998 11.7794 14.8418 12.0607 14.5605C12.342 14.2792 12.5001 13.8977 12.5001 13.4998Z" fill="white"/>
</svg>
