<svg width="40" height="41" viewBox="0 0 40 41" fill="none" xmlns="http://www.w3.org/2000/svg">
<path d="M36.5 4.5H21.5V1.5C21.5 1.10218 21.342 0.720644 21.0607 0.43934C20.7794 0.158035 20.3978 0 20 0C19.6022 0 19.2206 0.158035 18.9393 0.43934C18.658 0.720644 18.5 1.10218 18.5 1.5V4.5H3.5C2.70435 4.5 1.94129 4.81607 1.37868 5.37868C0.81607 5.94129 0.5 6.70435 0.5 7.5V30C0.5 30.7957 0.81607 31.5587 1.37868 32.1213C1.94129 32.6839 2.70435 33 3.5 33H10.88L6.82812 38.0625C6.57948 38.3733 6.46449 38.7701 6.50845 39.1657C6.5524 39.5613 6.7517 39.9232 7.0625 40.1719C7.3733 40.4205 7.77014 40.5355 8.16573 40.4916C8.56131 40.4476 8.92323 40.2483 9.17188 39.9375L14.72 33H25.28L30.8281 39.9375C30.9512 40.0914 31.1035 40.2195 31.2761 40.3146C31.4487 40.4097 31.6384 40.4698 31.8343 40.4916C32.0301 40.5133 32.2284 40.4963 32.4177 40.4414C32.607 40.3866 32.7836 40.295 32.9375 40.1719C33.0914 40.0488 33.2195 39.8965 33.3146 39.7239C33.4097 39.5513 33.4698 39.3616 33.4916 39.1657C33.5133 38.9699 33.4963 38.7716 33.4414 38.5823C33.3866 38.393 33.295 38.2164 33.1719 38.0625L29.12 33H36.5C37.2957 33 38.0587 32.6839 38.6213 32.1213C39.1839 31.5587 39.5 30.7957 39.5 30V7.5C39.5 6.70435 39.1839 5.94129 38.6213 5.37868C38.0587 4.81607 37.2957 4.5 36.5 4.5ZM36.5 30H3.5V7.5H36.5V30ZM15.5 19.5V24C15.5 24.3978 15.342 24.7794 15.0607 25.0607C14.7794 25.342 14.3978 25.5 14 25.5C13.6022 25.5 13.2206 25.342 12.9393 25.0607C12.658 24.7794 12.5 24.3978 12.5 24V19.5C12.5 19.1022 12.658 18.7206 12.9393 18.4393C13.2206 18.158 13.6022 18 14 18C14.3978 18 14.7794 18.158 15.0607 18.4393C15.342 18.7206 15.5 19.1022 15.5 19.5ZM21.5 16.5V24C21.5 24.3978 21.342 24.7794 21.0607 25.0607C20.7794 25.342 20.3978 25.5 20 25.5C19.6022 25.5 19.2206 25.342 18.9393 25.0607C18.658 24.7794 18.5 24.3978 18.5 24V16.5C18.5 16.1022 18.658 15.7206 18.9393 15.4393C19.2206 15.158 19.6022 15 20 15C20.3978 15 20.7794 15.158 21.0607 15.4393C21.342 15.7206 21.5 16.1022 21.5 16.5ZM27.5 13.5V24C27.5 24.3978 27.342 24.7794 27.0607 25.0607C26.7794 25.342 26.3978 25.5 26 25.5C25.6022 25.5 25.2206 25.342 24.9393 25.0607C24.658 24.7794 24.5 24.3978 24.5 24V13.5C24.5 13.1022 24.658 12.7206 24.9393 12.4393C25.2206 12.158 25.6022 12 26 12C26.3978 12 26.7794 12.158 27.0607 12.4393C27.342 12.7206 27.5 13.1022 27.5 13.5Z" fill="white"/>
</svg>
