<svg width="40" height="37" viewBox="0 0 40 37" fill="none" xmlns="http://www.w3.org/2000/svg">
<path d="M35 0.5H5C3.80653 0.5 2.66193 0.974106 1.81802 1.81802C0.974106 2.66193 0.5 3.80653 0.5 5V26C0.5 27.1935 0.974106 28.3381 1.81802 29.182C2.66193 30.0259 3.80653 30.5 5 30.5H18.5V33.5H14C13.6022 33.5 13.2206 33.658 12.9393 33.9393C12.658 34.2206 12.5 34.6022 12.5 35C12.5 35.3978 12.658 35.7794 12.9393 36.0607C13.2206 36.342 13.6022 36.5 14 36.5H26C26.3978 36.5 26.7794 36.342 27.0607 36.0607C27.342 35.7794 27.5 35.3978 27.5 35C27.5 34.6022 27.342 34.2206 27.0607 33.9393C26.7794 33.658 26.3978 33.5 26 33.5H21.5V30.5H35C36.1935 30.5 37.3381 30.0259 38.182 29.182C39.0259 28.3381 39.5 27.1935 39.5 26V5C39.5 3.80653 39.0259 2.66193 38.182 1.81802C37.3381 0.974106 36.1935 0.5 35 0.5ZM5 3.5H35C35.3978 3.5 35.7794 3.65804 36.0607 3.93934C36.342 4.22064 36.5 4.60218 36.5 5V20H3.5V5C3.5 4.60218 3.65804 4.22064 3.93934 3.93934C4.22064 3.65804 4.60218 3.5 5 3.5ZM35 27.5H5C4.60218 27.5 4.22064 27.342 3.93934 27.0607C3.65804 26.7794 3.5 26.3978 3.5 26V23H36.5V26C36.5 26.3978 36.342 26.7794 36.0607 27.0607C35.7794 27.342 35.3978 27.5 35 27.5Z" fill="white"/>
</svg>
