<svg width="48" height="48" viewBox="0 0 48 48" fill="none" xmlns="http://www.w3.org/2000/svg">
<rect width="48" height="48" rx="4" fill="url(#paint0_linear_862_448)"/>
<path d="M35.6484 33.9504C35.7598 34.0619 35.8483 34.1943 35.9086 34.3399C35.9689 34.4856 36 34.6417 36 34.7994C36 34.9571 35.9689 35.1132 35.9086 35.2588C35.8483 35.4045 35.7598 35.5369 35.6484 35.6484C35.5369 35.7598 35.4045 35.8483 35.2588 35.9086C35.1132 35.9689 34.9571 36 34.7994 36C34.6417 36 34.4856 35.9689 34.3399 35.9086C34.1943 35.8483 34.0619 35.7598 33.9504 35.6484L24 25.6964L14.0496 35.6484C13.8244 35.8735 13.519 36 13.2006 36C12.8822 36 12.5768 35.8735 12.3516 35.6484C12.1265 35.4232 12 35.1178 12 34.7994C12 34.481 12.1265 34.1756 12.3516 33.9504L22.3036 24L12.3516 14.0496C12.1265 13.8244 12 13.519 12 13.2006C12 12.8822 12.1265 12.5768 12.3516 12.3516C12.5768 12.1265 12.8822 12 13.2006 12C13.519 12 13.8244 12.1265 14.0496 12.3516L24 22.3036L33.9504 12.3516C34.1756 12.1265 34.481 12 34.7994 12C35.1178 12 35.4232 12.1265 35.6484 12.3516C35.8735 12.5768 36 12.8822 36 13.2006C36 13.519 35.8735 13.8244 35.6484 14.0496L25.6964 24L35.6484 33.9504Z" fill="white"/>
<defs>
<linearGradient id="paint0_linear_862_448" x1="0" y1="0" x2="48" y2="48" gradientUnits="userSpaceOnUse">
<stop stop-color="#384BF5"/>
<stop offset="1" stop-color="#7094F1"/>
</linearGradient>
</defs>
</svg>
