<svg width="48" height="48" viewBox="0 0 48 48" fill="none" xmlns="http://www.w3.org/2000/svg">
<rect width="48" height="48" rx="8" fill="white"/>
<path fill-rule="evenodd" clip-rule="evenodd" d="M9.49863 19.1819C13.4187 15.638 18.9254 16.0995 21.7891 18.6072C21.8632 18.6474 22.3528 19.1283 22.3327 19.1884C22.3145 19.2427 22.2964 22.4805 22.293 23.1111V27.6546C25.9708 28.0618 27.0581 28.7626 27.0617 30.9332V37.9668C24.4091 37.9668 22.2587 35.8164 22.2587 33.1637V27.7605C21.453 19.1126 11.5303 20.1497 10.2121 26.4366V37.8444C7.54334 37.8444 5.37988 35.6809 5.37988 33.0121V16.6801C7.52658 17.1605 8.80211 17.8394 9.49863 19.1819Z" fill="#384BF5"/>
<path fill-rule="evenodd" clip-rule="evenodd" d="M27.0621 17.0963C27.0585 12.3527 25.9644 10.8313 22.259 9.94531V27.311C22.2589 27.3358 22.2588 27.3606 22.2588 27.3855C22.2588 27.4103 22.2589 27.4351 22.259 27.4599V27.6169C22.259 27.7722 22.2664 27.9258 22.2808 28.0773C22.6374 33.6566 27.2755 38.0715 32.9448 38.0715C38.8465 38.0715 43.6308 33.2872 43.6308 27.3855C43.6308 21.4837 38.8465 16.6994 32.9448 16.6994C30.7713 16.6994 28.7493 17.3484 27.0621 18.463V17.0963ZM38.9379 27.2991C38.9379 30.5555 36.298 33.1954 33.0415 33.1954C29.7851 33.1954 27.1452 30.5555 27.1452 27.2991C27.1452 24.0426 29.7851 21.4028 33.0415 21.4028C36.298 21.4028 38.9379 24.0426 38.9379 27.2991Z" fill="#030513"/>
</svg>
