<svg width="32" height="32" viewBox="0 0 32 32" fill="none" xmlns="http://www.w3.org/2000/svg">
<path d="M30.4349 9.0982C32.1411 12.6668 32.465 16.7409 31.3441 20.5342C30.2231 24.3276 27.7368 27.5712 24.3649 29.6392C20.993 31.7071 16.9747 32.4528 13.0854 31.7323C9.19605 31.0117 5.7115 28.876 3.30424 25.7374C0.896969 22.5987 -0.262363 18.6797 0.0499919 14.7365C0.362346 10.7934 2.12424 7.10569 4.99564 4.3852C7.86703 1.66471 11.6444 0.10427 15.5986 0.00503999C19.5529 -0.0941897 23.4037 1.27483 26.408 3.84787L29.8923 0.361995C30.123 0.131274 30.4359 0.00165726 30.7622 0.00165726C31.0885 0.00165726 31.4014 0.131274 31.6322 0.361995C31.8629 0.592715 31.9925 0.905639 31.9925 1.23193C31.9925 1.55821 31.8629 1.87114 31.6322 2.10186L16.8771 16.8569C16.6464 17.0876 16.3335 17.2172 16.0072 17.2172C15.6809 17.2172 15.368 17.0876 15.1373 16.8569C14.9066 16.6262 14.7769 16.3132 14.7769 15.987C14.7769 15.6607 14.9066 15.3477 15.1373 15.117L19.3978 10.8565C18.2431 10.0929 16.8645 9.74126 15.4852 9.85861C14.1059 9.97597 12.8065 10.5554 11.7974 11.5031C10.7884 12.4509 10.1287 13.7114 9.92524 15.0807C9.72175 16.45 9.98635 17.8479 10.6762 19.0481C11.3661 20.2483 12.4408 21.1806 13.7264 21.6939C15.012 22.2073 16.4333 22.2718 17.7601 21.8769C19.0869 21.482 20.2416 20.6509 21.0373 19.5181C21.833 18.3853 22.2231 17.0171 22.1444 15.635C22.1353 15.4735 22.1581 15.3118 22.2115 15.1592C22.2649 15.0065 22.3478 14.8659 22.4556 14.7453C22.5634 14.6247 22.6938 14.5265 22.8395 14.4563C22.9852 14.3861 23.1433 14.3453 23.3048 14.3362C23.6309 14.3179 23.9509 14.4298 24.1945 14.6475C24.3151 14.7552 24.4133 14.8857 24.4835 15.0314C24.5537 15.1771 24.5945 15.3352 24.6035 15.4967C24.7156 17.4529 24.1569 19.3888 23.0197 20.9845C21.8824 22.5801 20.2348 23.74 18.349 24.2724C16.4633 24.8048 14.4524 24.6778 12.6486 23.9124C10.8448 23.147 9.35614 21.7891 8.42868 20.0631C7.50121 18.337 7.19045 16.3462 7.54775 14.4196C7.90505 12.493 8.90903 10.746 10.3937 9.46727C11.8785 8.18858 13.755 7.45476 15.7133 7.38709C17.6716 7.31943 19.5943 7.92197 21.1638 9.09513L24.6604 5.59849C22.098 3.471 18.8398 2.36524 15.5118 2.4936C12.1837 2.62196 9.02042 3.97538 6.62944 6.29392C4.23847 8.61247 2.7884 11.7326 2.55776 15.0552C2.32711 18.3777 3.33215 21.6683 5.37983 24.295C7.42752 26.9216 10.3735 28.6992 13.6519 29.2861C16.9303 29.8731 20.3099 29.2281 23.1418 27.4751C25.9736 25.7221 28.0579 22.9846 28.9944 19.7884C29.9309 16.5923 29.6535 13.1628 28.2155 10.1587C28.0748 9.86441 28.0569 9.52628 28.1655 9.21873C28.2742 8.91118 28.5006 8.65939 28.7949 8.51876C29.0892 8.37812 29.4273 8.36016 29.7349 8.46883C30.0424 8.5775 30.2942 8.80389 30.4349 9.0982Z" fill="white"/>
</svg>
